<svg width="55" height="55" viewBox="0 0 55 55" fill="none" xmlns="http://www.w3.org/2000/svg">
<circle cx="27.5" cy="27.5" r="27.5" fill="#FFE500"/>
<path d="M16.62 34C16.5 34 16.44 33.94 16.44 33.82V22.72C16.44 22.6 16.38 22.5733 16.26 22.64L14.14 23.84C14.0067 23.92 13.9067 23.9067 13.84 23.8L13.3 22.86C13.2333 22.74 13.26 22.64 13.38 22.56L16.72 20.66C16.8133 20.6067 16.88 20.5733 16.92 20.56C16.9733 20.5467 17.0333 20.54 17.1 20.54H18.06C18.1933 20.54 18.26 20.6067 18.26 20.74V33.82C18.26 33.94 18.2 34 18.08 34H16.62ZM20.7578 26.08H37.0978V27.46H20.7578V26.08ZM22.8178 23.02H35.1978V24.36H22.8178V23.02ZM22.8178 18.2H35.0578V19.56H24.4578V23.66H22.8178V18.2ZM28.8978 29.02C32.7578 29.02 35.0978 30.2 35.0978 32.28C35.0978 34.36 32.7578 35.52 28.8978 35.52C25.0378 35.52 22.6978 34.36 22.6978 32.28C22.6978 30.2 25.0378 29.02 28.8978 29.02ZM28.8978 30.3C26.0778 30.3 24.3778 31.02 24.3778 32.28C24.3778 33.52 26.0778 34.22 28.8978 34.22C31.7378 34.22 33.4178 33.52 33.4178 32.28C33.4178 31.02 31.7378 30.3 28.8978 30.3Z" fill="black"/>
</svg>
