<svg width="55" height="55" viewBox="0 0 55 55" fill="none" xmlns="http://www.w3.org/2000/svg">
<circle cx="27.5" cy="27.5" r="27.5" fill="#E2E2E2"/>
<path d="M13.9 34C13.8067 34 13.7467 33.9933 13.72 33.98C13.6933 33.9533 13.68 33.9 13.68 33.82V32.78C13.68 32.6333 13.7333 32.5333 13.84 32.48C14.5067 32.0267 15.2 31.52 15.92 30.96C16.6533 30.3867 17.3333 29.7667 17.96 29.1C18.5867 28.42 19.0933 27.7067 19.48 26.96C19.88 26.2133 20.08 25.4467 20.08 24.66C20.08 24.0867 19.96 23.6067 19.72 23.22C19.4933 22.8333 19.1733 22.54 18.76 22.34C18.3467 22.14 17.8667 22.04 17.32 22.04C16.8 22.04 16.3333 22.1133 15.92 22.26C15.5067 22.3933 15.16 22.54 14.88 22.7C14.6 22.8467 14.3933 22.94 14.26 22.98C14.0733 23.0467 13.98 23.02 13.98 22.9V21.68C13.98 21.6 13.9933 21.54 14.02 21.5C14.06 21.46 14.1267 21.4133 14.22 21.36C14.4067 21.2533 14.6667 21.1267 15 20.98C15.3333 20.8333 15.7133 20.7067 16.14 20.6C16.58 20.4933 17.0333 20.44 17.5 20.44C18.22 20.44 18.9133 20.58 19.58 20.86C20.2467 21.14 20.7933 21.5867 21.22 22.2C21.6467 22.8133 21.86 23.6133 21.86 24.6C21.86 25.4 21.7067 26.16 21.4 26.88C21.1067 27.6 20.7 28.2933 20.18 28.96C19.6733 29.6133 19.1 30.2267 18.46 30.8C17.82 31.3733 17.1533 31.92 16.46 32.44C16.4333 32.4667 16.4267 32.4933 16.44 32.52C16.4533 32.5467 16.48 32.56 16.52 32.56H21.76C21.8667 32.56 21.92 32.6067 21.92 32.7V33.82C21.92 33.9 21.9067 33.9533 21.88 33.98C21.8667 33.9933 21.8067 34 21.7 34H13.9ZM23.9219 26.08H40.2619V27.46H23.9219V26.08ZM25.9819 23.02H38.3619V24.36H25.9819V23.02ZM25.9819 18.2H38.2219V19.56H27.6219V23.66H25.9819V18.2ZM32.0619 29.02C35.9219 29.02 38.2619 30.2 38.2619 32.28C38.2619 34.36 35.9219 35.52 32.0619 35.52C28.2019 35.52 25.8619 34.36 25.8619 32.28C25.8619 30.2 28.2019 29.02 32.0619 29.02ZM32.0619 30.3C29.2419 30.3 27.5419 31.02 27.5419 32.28C27.5419 33.52 29.2419 34.22 32.0619 34.22C34.9019 34.22 36.5819 33.52 36.5819 32.28C36.5819 31.02 34.9019 30.3 32.0619 30.3Z" fill="black"/>
</svg>
