<svg width="55" height="55" viewBox="0 0 55 55" fill="none" xmlns="http://www.w3.org/2000/svg">
<circle cx="27.5" cy="27.5" r="27.5" fill="#A9860A"/>
<path d="M17.38 34.1C16.9133 34.1 16.4467 34.04 15.98 33.92C15.5267 33.8 15.1067 33.6267 14.72 33.4C14.3333 33.1733 14.0067 32.9067 13.74 32.6C13.6867 32.5333 13.66 32.4733 13.66 32.42C13.6733 32.3533 13.7 32.2933 13.74 32.24L14.38 31.44C14.5 31.3067 14.62 31.3 14.74 31.42C15.1 31.78 15.5 32.06 15.94 32.26C16.3933 32.4467 16.86 32.54 17.34 32.54C17.9 32.54 18.3733 32.42 18.76 32.18C19.1467 31.9267 19.44 31.6133 19.64 31.24C19.84 30.8667 19.94 30.4867 19.94 30.1C19.94 29.7267 19.8333 29.3533 19.62 28.98C19.42 28.5933 19.1067 28.28 18.68 28.04C18.2533 27.7867 17.7133 27.66 17.06 27.66C16.98 27.66 16.9 27.66 16.82 27.66C16.74 27.66 16.6467 27.66 16.54 27.66C16.4867 27.66 16.4333 27.64 16.38 27.6C16.34 27.56 16.32 27.4933 16.32 27.4V26.42C16.32 26.2467 16.3933 26.16 16.54 26.16C16.6333 26.16 16.7467 26.16 16.88 26.16C17.0133 26.16 17.1667 26.16 17.34 26.16C17.8467 26.1467 18.2733 26.0333 18.62 25.82C18.98 25.5933 19.2467 25.3133 19.42 24.98C19.6067 24.6467 19.7 24.3067 19.7 23.96C19.7 23.6133 19.6133 23.2933 19.44 23C19.2667 22.6933 19.0067 22.4467 18.66 22.26C18.3133 22.0733 17.88 21.98 17.36 21.98C16.92 21.98 16.4533 22.08 15.96 22.28C15.48 22.48 15.08 22.72 14.76 23C14.6 23.16 14.4667 23.1533 14.36 22.98L13.8 21.98C13.76 21.9267 13.7533 21.8667 13.78 21.8C13.8067 21.72 13.8333 21.6733 13.86 21.66C14.2467 21.3533 14.6533 21.1133 15.08 20.94C15.5067 20.7667 15.9267 20.64 16.34 20.56C16.7533 20.48 17.1333 20.44 17.48 20.44C18.3333 20.44 19.0467 20.6 19.62 20.92C20.1933 21.24 20.6267 21.6533 20.92 22.16C21.2133 22.6667 21.36 23.2067 21.36 23.78C21.36 24.4467 21.1867 25.0533 20.84 25.6C20.5067 26.1333 20.0467 26.5267 19.46 26.78C19.3 26.8333 19.22 26.8733 19.22 26.9C19.22 26.9133 19.3133 26.9533 19.5 27.02C20.1667 27.2467 20.7 27.6267 21.1 28.16C21.5 28.68 21.7 29.32 21.7 30.08C21.7 30.7467 21.5267 31.3933 21.18 32.02C20.8467 32.6333 20.36 33.1333 19.72 33.52C19.08 33.9067 18.3 34.1 17.38 34.1ZM23.7461 26.08H40.0861V27.46H23.7461V26.08ZM25.8061 23.02H38.1861V24.36H25.8061V23.02ZM25.8061 18.2H38.0461V19.56H27.4461V23.66H25.8061V18.2ZM31.8861 29.02C35.7461 29.02 38.0861 30.2 38.0861 32.28C38.0861 34.36 35.7461 35.52 31.8861 35.52C28.0261 35.52 25.6861 34.36 25.6861 32.28C25.6861 30.2 28.0261 29.02 31.8861 29.02ZM31.8861 30.3C29.0661 30.3 27.3661 31.02 27.3661 32.28C27.3661 33.52 29.0661 34.22 31.8861 34.22C34.7261 34.22 36.4061 33.52 36.4061 32.28C36.4061 31.02 34.7261 30.3 31.8861 30.3Z" fill="black"/>
</svg>
