<svg width="30" height="30" viewBox="0 0 30 30" fill="none" xmlns="http://www.w3.org/2000/svg">
<path d="M27.5278 14.5291C26.3383 15.7221 24.8214 16.5353 23.1693 16.8657C21.5172 17.1961 19.8041 17.0288 18.2472 16.3851L8.10414 28.608C6.24801 30.464 3.24822 30.464 1.39209 28.608C-0.464031 26.7521 -0.464031 23.7526 1.39209 21.9154L13.6163 11.7546C12.3413 8.66133 12.9601 4.98694 15.4724 2.47486C17.8722 0.0752522 21.322 -0.562143 24.3218 0.487684L18.9034 5.90554L24.1905 11.1922L29.5527 5.81181C30.5464 8.77382 29.8901 12.167 27.5278 14.5291ZM3.39821 26.6021C4.14815 27.3333 5.34807 27.3333 6.07927 26.6021C6.82922 25.8522 6.82922 24.6524 6.07927 23.9213C5.34807 23.1714 4.14815 23.1714 3.39821 23.9213C3.04668 24.2789 2.8497 24.7603 2.8497 25.2617C2.8497 25.7631 3.04668 26.2445 3.39821 26.6021Z" fill="black"/>
</svg>
