<svg width="50" height="50" viewBox="0 0 50 50" fill="none" xmlns="http://www.w3.org/2000/svg">
<circle cx="25" cy="25" r="24.5" fill="white" stroke="black"/>
<path d="M35 21.8622C35 23.4087 34.4062 24.8941 33.3458 25.9929C30.9049 28.523 28.5374 31.1613 26.0053 33.5997C25.4249 34.1505 24.5042 34.1304 23.9488 33.5547L16.6538 25.9929C14.4487 23.7072 14.4487 20.0172 16.6538 17.7316C18.8804 15.4234 22.5079 15.4234 24.7346 17.7316L24.9998 18.0064L25.2648 17.7317C26.3324 16.6245 27.7864 16 29.3053 16C30.8242 16 32.2781 16.6244 33.3458 17.7316C34.4063 18.8304 35 20.3158 35 21.8622Z" fill="#FF0000" stroke="#FF0000" stroke-width="3" stroke-linejoin="round"/>
</svg>
