<svg width="146" height="36" viewBox="0 0 146 36" fill="none" xmlns="http://www.w3.org/2000/svg">
<g filter="url(#filter0_d_65_94)">
<path d="M5 5C5 2.23858 7.23858 0 10 0H135C137.761 0 140 2.23858 140 5V23C140 25.7614 137.761 28 135 28H10C7.23857 28 5 25.7614 5 23V5Z" fill="#FFC164"/>
</g>
<path d="M33.507 6.595H34.752V20.185H33.507V6.595ZM27.597 7.645C29.607 7.645 31.047 9.49 31.047 12.37C31.047 15.265 29.607 17.11 27.597 17.11C25.602 17.11 24.162 15.265 24.162 12.37C24.162 9.49 25.602 7.645 27.597 7.645ZM27.597 8.77C26.277 8.77 25.347 10.18 25.347 12.37C25.347 14.575 26.277 16.015 27.597 16.015C28.932 16.015 29.847 14.575 29.847 12.37C29.847 10.18 28.932 8.77 27.597 8.77ZM43.8558 10.435H47.7558V11.455H43.8558V10.435ZM47.3658 6.625H48.6108V16.66H47.3658V6.625ZM39.8958 18.85H48.9408V19.87H39.8958V18.85ZM39.8958 15.685H41.1408V19.375H39.8958V15.685ZM38.1258 7.51H39.3558V9.91H43.0308V7.51H44.2458V14.35H38.1258V7.51ZM39.3558 10.885V13.33H43.0308V10.885H39.3558ZM56.6946 7.945H57.7746V8.515C57.7746 10.945 55.1946 12.73 52.4646 13.195L51.9846 12.205C54.3696 11.86 56.6946 10.3 56.6946 8.515V7.945ZM57.0096 7.945H58.0746V8.515C58.0746 10.3 60.4146 11.86 62.7846 12.205L62.3196 13.195C59.5746 12.73 57.0096 10.945 57.0096 8.515V7.945ZM56.7396 14.995H57.9696V20.17H56.7396V14.995ZM51.2646 14.335H63.5196V15.355H51.2646V14.335ZM52.4046 7.45H62.3346V8.455H52.4046V7.45ZM71.4577 8.83H72.4027V9.22C72.4027 11.095 71.2327 12.97 69.2677 13.735L68.6977 12.79C70.3777 12.13 71.4577 10.645 71.4577 9.22V8.83ZM71.6977 8.83H72.6277V9.22C72.6277 10.57 73.7377 11.965 75.4027 12.535L74.8477 13.48C72.8827 12.775 71.6977 11.035 71.6977 9.22V8.83ZM68.9977 8.14H75.0427V9.13H68.9977V8.14ZM71.4577 6.685H72.6277V8.725H71.4577V6.685ZM78.8677 6.625H80.0527V13.87H78.8677V6.625ZM76.7077 9.7H79.2727V10.705H76.7077V9.7ZM75.9877 6.88H77.1577V13.735H75.9877V6.88ZM71.1127 14.455H80.0527V17.605H72.3727V19.66H71.1427V16.69H78.8527V15.415H71.1127V14.455ZM71.1427 19.03H80.5777V20.005H71.1427V19.03ZM92.2915 6.625H93.5365V16.615H92.2915V6.625ZM84.7015 18.85H93.9115V19.87H84.7015V18.85ZM84.7015 15.82H85.9465V19.36H84.7015V15.82ZM83.1265 13.66H84.2215C86.7865 13.66 88.5715 13.57 90.6715 13.21L90.8065 14.23C88.6465 14.605 86.8465 14.68 84.2215 14.68H83.1265V13.66ZM83.0965 7.57H89.2465V11.5H84.3415V13.975H83.1265V10.54H88.0315V8.59H83.0965V7.57ZM99.8204 8.545H100.825V10.75C100.825 13.615 99.1004 16.495 96.9404 17.56L96.2204 16.57C98.1854 15.64 99.8204 13.09 99.8204 10.75V8.545ZM100.06 8.545H101.065V10.75C101.065 13.045 102.7 15.385 104.695 16.24L103.99 17.23C101.8 16.21 100.06 13.57 100.06 10.75V8.545ZM96.6704 7.99H104.245V9.04H96.6704V7.99ZM106.075 6.61H107.32V20.17H106.075V6.61ZM110.034 13.06H122.274V14.065H110.034V13.06ZM111.354 15.61H120.714V20.17H119.469V16.615H111.354V15.61ZM111.489 7.33H120.219V8.35H111.489V7.33ZM115.059 10.3H116.289V13.33H115.059V10.3ZM119.499 7.33H120.729V8.365C120.729 9.4 120.729 10.57 120.384 12.1L119.154 11.98C119.499 10.465 119.499 9.37 119.499 8.365V7.33Z" fill="white"/>
<defs>
<filter id="filter0_d_65_94" x="1" y="0" width="143" height="36" filterUnits="userSpaceOnUse" color-interpolation-filters="sRGB">
<feFlood flood-opacity="0" result="BackgroundImageFix"/>
<feColorMatrix in="SourceAlpha" type="matrix" values="0 0 0 0 0 0 0 0 0 0 0 0 0 0 0 0 0 0 127 0" result="hardAlpha"/>
<feOffset dy="4"/>
<feGaussianBlur stdDeviation="2"/>
<feComposite in2="hardAlpha" operator="out"/>
<feColorMatrix type="matrix" values="0 0 0 0 0 0 0 0 0 0 0 0 0 0 0 0 0 0 0.25 0"/>
<feBlend mode="normal" in2="BackgroundImageFix" result="effect1_dropShadow_65_94"/>
<feBlend mode="normal" in="SourceGraphic" in2="effect1_dropShadow_65_94" result="shape"/>
</filter>
</defs>
</svg>
