<svg width="16" height="20" viewBox="0 0 16 20" fill="none" xmlns="http://www.w3.org/2000/svg">
<path d="M8.06363 16.0314C8.06363 17.888 6.41133 19.4641 4.28182 19.4641C2.1523 19.4641 0.5 17.888 0.5 16.0314C0.5 14.1747 2.1523 12.5986 4.28182 12.5986C6.41133 12.5986 8.06363 14.1747 8.06363 16.0314Z" fill="black" stroke="black"/>
<line x1="7.99316" y1="3.10938" x2="7.99316" y2="16.0312" stroke="black"/>
<path fill-rule="evenodd" clip-rule="evenodd" d="M7.49316 6.15458L12.9295 11.7163L12.9845 11.6601V10.3423L8.19216 5.43945L7.49316 6.15458Z" fill="black"/>
<path fill-rule="evenodd" clip-rule="evenodd" d="M8.40691 2.78151C8.40448 2.77886 8.40203 2.77624 8.39955 2.77363C8.19053 2.55423 7.85164 2.55423 7.64262 2.77363C7.4336 2.99304 7.4336 3.34876 7.64262 3.56816C7.64266 3.5682 7.6427 3.56824 7.64274 3.56828L8.39959 2.77383L8.40691 2.78151Z" fill="black"/>
<path fill-rule="evenodd" clip-rule="evenodd" d="M7.64258 3.56876L12.9411 9.13049L12.9948 9.07402V7.73889L8.33234 2.84473L7.64258 3.56876Z" fill="black"/>
</svg>
