<svg width="12" height="12" viewBox="0 0 12 12" fill="none" xmlns="http://www.w3.org/2000/svg">
<circle cx="6" cy="6" r="5.5" fill="white" stroke="black"/>
<path d="M5.49414 7.29C5.44747 7.29 5.41747 7.28 5.40414 7.26C5.39747 7.23333 5.39414 7.19333 5.39414 7.14C5.39414 6.80667 5.41747 6.52667 5.46414 6.3C5.51747 6.06667 5.59081 5.86667 5.68414 5.7C5.77747 5.53333 5.89081 5.38667 6.02414 5.26C6.15747 5.12667 6.31414 4.99667 6.49414 4.87C6.58747 4.80333 6.68747 4.73 6.79414 4.65C6.90081 4.57 7.00081 4.48667 7.09414 4.4C7.18747 4.30667 7.26081 4.20667 7.31414 4.1C7.37414 3.99333 7.39747 3.87333 7.38414 3.74C7.37747 3.5 7.28081 3.31667 7.09414 3.19C6.91414 3.05667 6.67747 2.99 6.38414 2.99C6.11081 2.99 5.86081 3.02667 5.63414 3.1C5.40747 3.16667 5.22747 3.23 5.09414 3.29C5.04081 3.31 5.00747 3.32667 4.99414 3.34C4.98081 3.34667 4.96414 3.32 4.94414 3.26L4.77414 2.76C4.76081 2.72 4.77081 2.68667 4.80414 2.66C4.83747 2.63333 4.87414 2.60667 4.91414 2.58C5.10081 2.48 5.32747 2.40333 5.59414 2.35C5.86747 2.29 6.11747 2.26 6.34414 2.26C6.91747 2.26 7.37414 2.39667 7.71414 2.67C8.06081 2.93667 8.23414 3.30333 8.23414 3.77C8.23414 4.09 8.17081 4.34667 8.04414 4.54C7.92414 4.72667 7.77747 4.88333 7.60414 5.01C7.43081 5.13 7.26081 5.24333 7.09414 5.35C6.86747 5.51 6.68414 5.67333 6.54414 5.84C6.41081 6.00667 6.31414 6.19667 6.25414 6.41C6.19414 6.62333 6.16414 6.87667 6.16414 7.17C6.16414 7.21667 6.16081 7.25 6.15414 7.27C6.14747 7.28333 6.13081 7.29 6.10414 7.29H5.49414ZM5.30414 8.71C5.30414 8.57667 5.34081 8.47667 5.41414 8.41C5.48747 8.33667 5.61081 8.3 5.78414 8.3C5.97747 8.3 6.10414 8.33667 6.16414 8.41C6.22414 8.47667 6.25414 8.57667 6.25414 8.71C6.25414 8.84333 6.22414 8.94333 6.16414 9.01C6.10414 9.07667 5.97747 9.11 5.78414 9.11C5.61081 9.11 5.48747 9.07667 5.41414 9.01C5.34081 8.94333 5.30414 8.84333 5.30414 8.71Z" fill="black"/>
</svg>
