<svg width="20" height="20" viewBox="0 0 20 20" fill="none" xmlns="http://www.w3.org/2000/svg">
<path d="M9.71086 11.9778C9.59384 12.0948 9.45491 12.1877 9.302 12.251C9.1491 12.3143 8.98522 12.3469 8.81972 12.3469C8.65422 12.3469 8.49034 12.3143 8.33743 12.251C8.18453 12.1877 8.0456 12.0948 7.92857 11.9778C7.81155 11.8608 7.71871 11.7219 7.65538 11.569C7.59205 11.4161 7.55945 11.2522 7.55945 11.0867C7.55945 10.9213 7.59205 10.7574 7.65538 10.6045C7.71871 10.4516 7.81155 10.3127 7.92857 10.1957C8.16492 9.95933 8.48547 9.82656 8.81972 9.82656C9.15396 9.82656 9.47452 9.95933 9.71086 10.1957C9.94721 10.432 10.08 10.7525 10.08 11.0867C10.08 11.421 9.94721 11.7415 9.71086 11.9778ZM16.2755 0.516733C16.4393 0.35291 16.6338 0.222957 16.8479 0.134295C17.0619 0.0456336 17.2913 0 17.523 0C17.7547 0 17.9841 0.0456336 18.1982 0.134295C18.4122 0.222957 18.6067 0.35291 18.7705 0.516733L19.4832 1.23041C19.6471 1.39421 19.777 1.58868 19.8657 1.80272C19.9544 2.01675 20 2.24615 20 2.47782C20 2.70949 19.9544 2.93889 19.8657 3.15292C19.777 3.36695 19.6471 3.56143 19.4832 3.72523L14.342 8.86609C14.5624 9.19327 14.7105 9.56369 14.7763 9.95263C14.8422 10.3416 14.8244 10.7401 14.724 11.1216C14.6236 11.5031 14.4431 11.8588 14.1943 12.165C13.9456 12.4711 13.6344 12.7207 13.2815 12.8971L12.4428 13.3165C12.3226 13.3767 12.2255 13.4747 12.1663 13.5954C12.1072 13.7161 12.0892 13.8529 12.1151 13.9848L12.1303 14.0584C12.3057 14.9365 12.2292 15.8464 11.9095 16.6829C11.5899 17.5194 11.0401 18.2485 10.3238 18.7859C9.15351 19.6628 7.70633 20.0884 6.24765 19.9847C4.78897 19.881 3.41656 19.255 2.38209 18.2214L1.77825 17.6166C0.744893 16.5823 0.118997 15.2102 0.0153117 13.7518C-0.0883741 12.2935 0.337097 10.8466 1.21372 9.67653C1.75121 8.96024 2.48033 8.41055 3.31691 8.09092C4.15349 7.7713 5.06342 7.69477 5.94164 7.87018L6.01422 7.8853C6.14627 7.91148 6.28327 7.89362 6.40419 7.83444C6.52511 7.77526 6.62326 7.67804 6.68359 7.55769L7.10295 6.71802C7.27955 6.36548 7.52927 6.05464 7.83548 5.80622C8.14168 5.5578 8.49733 5.3775 8.87871 5.27734C9.26009 5.17719 9.65845 5.15947 10.0472 5.22539C10.436 5.29131 10.8062 5.43934 11.1333 5.65961L16.2755 0.516733ZM17.7009 1.58623C17.6537 1.53914 17.5897 1.5127 17.523 1.5127C17.4563 1.5127 17.3923 1.53914 17.3451 1.58623L16.1505 2.78073L17.2191 3.84922L18.4137 2.65573C18.4371 2.63232 18.4557 2.60452 18.4684 2.5739C18.4812 2.54328 18.4877 2.51046 18.4877 2.47731C18.4877 2.44417 18.4812 2.41135 18.4684 2.38073C18.4557 2.35011 18.4371 2.32231 18.4137 2.2989L17.7009 1.58623ZM16.1505 4.91872L15.0819 3.85023L11.7038 7.22706C11.6336 7.29732 11.5503 7.35305 11.4585 7.39107C11.3667 7.42909 11.2684 7.44867 11.1691 7.44867C11.0697 7.44867 10.9714 7.42909 10.8796 7.39107C10.7879 7.35305 10.7045 7.29732 10.6343 7.22706L10.473 7.06679C10.3318 6.92581 10.1591 6.82038 9.9692 6.75916C9.77929 6.69795 9.57755 6.68271 9.38059 6.7147C9.18364 6.74669 8.99709 6.82499 8.83631 6.94315C8.67553 7.06132 8.54512 7.21598 8.4558 7.39439L8.03543 8.23407C7.82663 8.65073 7.48674 8.98729 7.06802 9.19199C6.6493 9.39669 6.17493 9.4582 5.71784 9.36707L5.64526 9.35296C5.04691 9.23335 4.42693 9.28534 3.85686 9.50293C3.28679 9.72053 2.78987 10.0949 2.42343 10.5827C1.76478 11.4618 1.44512 12.5489 1.52308 13.6446C1.60103 14.7403 2.07136 15.7711 2.84783 16.5481L3.45167 17.1519C4.22882 17.9279 5.25962 18.3979 6.35515 18.4756C7.45067 18.5534 8.53753 18.2338 9.4165 17.5753C9.90424 17.209 10.2785 16.7123 10.4961 16.1424C10.7137 15.5726 10.7658 14.9529 10.6464 14.3547L10.6323 14.2821C10.541 13.8248 10.6025 13.3502 10.8074 12.9313C11.0123 12.5123 11.3493 12.1724 11.7663 11.9637L12.6061 11.5444C12.7846 11.455 12.9394 11.3245 13.0576 11.1636C13.1758 11.0027 13.254 10.816 13.2859 10.6189C13.3178 10.4219 13.3024 10.22 13.241 10.0301C13.1796 9.84011 13.0739 9.66745 12.9327 9.52634L12.7724 9.36506C12.6308 9.2233 12.5513 9.03115 12.5513 8.83081C12.5513 8.63047 12.6308 8.43832 12.7724 8.29656L16.1505 4.91872Z" fill="black"/>
</svg>
