<svg width="20" height="20" viewBox="0 0 20 20" fill="none" xmlns="http://www.w3.org/2000/svg">
<path d="M16.9925 3.18359L10.0781 6.46484C9.87021 6.32514 9.62549 6.25031 9.375 6.24984C9.04348 6.24984 8.72554 6.38154 8.49112 6.61596C8.2567 6.85038 8.125 7.16832 8.125 7.49984C8.125 7.83136 8.2567 8.14931 8.49112 8.38373C8.72554 8.61815 9.04348 8.74984 9.375 8.74984C10.0312 8.74984 10.5763 8.24172 10.625 7.59734L14.4144 5.80047C15.5487 6.27922 16.25 6.90422 16.25 7.49984C16.25 8.67922 13.5769 9.99984 10 9.99984C6.42313 9.99984 3.75 8.67922 3.75 7.49984C3.75 6.32047 6.42313 4.99984 10 4.99984C10.1075 4.99984 10.205 4.99734 10.3125 4.99984L12.5194 3.96484C11.687 3.82305 10.8443 3.75114 10 3.74984C5.725 3.74984 2.5 5.36109 2.5 7.49984V13.7498C2.5 14.3673 2.77812 14.9342 3.20312 15.3905C3.62812 15.8467 4.20625 16.2155 4.88313 16.5236C6.235 17.1386 8.025 17.4998 10 17.4998C11.975 17.4998 13.7644 17.1386 15.1175 16.523C15.7937 16.2155 16.3719 15.8467 16.7969 15.3905C17.2219 14.9342 17.5 14.3673 17.5 13.7498V7.49984C17.5 6.57672 16.8894 5.75609 15.8594 5.11672L17.5194 4.31672L16.9925 3.18359ZM3.75 9.62859C4.385 10.1073 5.23688 10.5005 6.25 10.7811V15.7223C5.9375 15.6248 5.65188 15.5098 5.39062 15.3905C4.82437 15.1317 4.39187 14.8217 4.12125 14.5311C3.85 14.2405 3.75 13.9967 3.75 13.7498V9.62859ZM16.25 9.62859V13.7498C16.25 13.9967 16.15 14.2405 15.8787 14.5311C15.6081 14.8217 15.1756 15.1311 14.6094 15.3905C14.3481 15.5098 14.0625 15.6248 13.75 15.7223V10.7811C14.7631 10.4998 15.615 10.1073 16.25 9.62859ZM7.5 11.0542C8.32655 11.1879 9.16271 11.2534 10 11.2498C10.8373 11.2534 11.6735 11.1879 12.5 11.0542V16.0155C11.7312 16.1592 10.8888 16.2498 10 16.2498C9.11125 16.2498 8.26875 16.1592 7.5 16.0155V11.0542Z" fill="black"/>
</svg>
