<svg width="20" height="20" viewBox="0 0 20 20" fill="none" xmlns="http://www.w3.org/2000/svg">
<path fill-rule="evenodd" clip-rule="evenodd" d="M8.58489 3.6361C7.00445 1.6278 4.44206 1.6278 2.86163 3.6361C1.2812 5.64441 1.2812 8.90051 2.86163 10.9088C2.87253 10.9227 2.88348 10.9364 2.89448 10.9501L2.86182 10.9086L8.58489 3.6361Z" fill="black"/>
<path fill-rule="evenodd" clip-rule="evenodd" d="M17.1379 10.9121C17.138 10.9121 17.138 10.912 17.138 10.912C18.7184 8.9037 18.7184 5.6476 17.138 3.63929C15.5576 1.63098 12.9952 1.63098 11.4147 3.63929C11.3992 3.65899 11.3839 3.67881 11.3687 3.69875L11.415 3.63984L17.1379 10.9121Z" fill="black"/>
<rect width="11.7219" height="9.25463" transform="matrix(0.618421 -0.785847 0.618421 0.785847 4.29199 12.7275)" fill="black"/>
<rect width="9.25463" height="10.9423" transform="matrix(0.618421 -0.785847 0.618421 0.785847 2.83545 10.876)" fill="black"/>
</svg>
