<svg width="20" height="20" viewBox="0 0 20 20" fill="none" xmlns="http://www.w3.org/2000/svg">
<g clip-path="url(#clip0_121_979)">
<path d="M18.5951 2.19781L18.7632 1.94438L18.9582 2.13938L19.3751 1.53875L19.1688 1.3325L19.3744 1.0225L18.9773 0.625938L18.6676 0.830937L18.4619 0.625L17.8598 1.04094L18.0554 1.23656L17.8019 1.40406L17.7319 1.79969L17.5644 1.91062L17.146 1.49188L17.3216 1.31625L16.7507 1.05375L16.4548 1.35031L16.7166 1.92125L16.8923 1.74563L17.2594 2.11313L16.6832 2.49594L15.9963 1.80938L15.7419 2.06344L16.5254 2.8475L12.8401 6.26969C12.2063 5.67625 11.2544 4.925 10.2588 4.925C9.44382 4.925 8.7607 5.41187 8.22883 6.37063C8.13508 6.53906 8.07195 6.73594 8.01132 6.92625C7.83132 7.48812 7.6757 7.84687 7.11601 7.89656L2.46289 3.24344L0.932887 3.875L1.38195 4.32438L1.6532 4.59563L2.0132 4.95594L6.6182 9.56063C6.54646 9.69875 6.44354 9.81826 6.31757 9.90969C5.89289 10.2278 5.53632 10.3894 5.25726 10.3894C5.10695 10.3894 4.88601 10.3472 4.7082 9.98344C4.62507 9.81437 4.45101 9.63375 4.21195 9.63375C3.69289 9.63375 3.58226 10.4047 3.54601 10.6569C3.52539 10.7981 3.39851 11.1322 2.66882 11.1809C1.78132 11.2406 1.0982 11.7403 0.793512 12.5509C0.38195 13.6481 0.632262 15.5113 2.5707 17.4494C3.81132 18.6903 5.18226 19.3731 6.43101 19.3737C7.75351 19.3737 8.72101 18.5647 8.83695 17.3609C8.9107 16.5975 9.25758 16.4894 9.36164 16.4744C9.76757 16.4159 10.3151 16.2913 10.3804 15.8791C10.4157 15.655 10.281 15.4322 10.0354 15.3119C9.81414 15.2031 9.68664 15.0691 9.6457 14.9009C9.5757 14.6131 9.73101 14.2113 10.1141 13.6962C10.2039 13.5724 10.321 13.4708 10.4563 13.3994L14.3407 17.2837L15.0423 17.9853L15.6744 18.6175L16.1235 19.0666L16.7557 17.5366L12.1229 12.9041C12.1763 12.3034 12.5879 12.1709 13.0929 12.0094C13.2835 11.9484 13.4804 11.8856 13.6491 11.7916C14.4979 11.3206 14.9782 10.7278 15.0757 10.0291C15.2304 8.92437 14.3851 7.85406 13.7313 7.16L17.2304 3.39125L17.3641 3.525L17.6069 3.15937L18.0173 3.56969L17.8419 3.74531L18.4129 4.00781L18.7088 3.71125L18.4463 3.14031L18.271 3.31562L17.8095 2.85375L18.061 2.475L19.0029 3.41719L19.257 3.16281L18.3382 2.24344L18.5951 2.19781ZM8.59664 7.11438C8.65101 6.945 8.70226 6.785 8.76601 6.66937C9.18757 5.90969 9.67601 5.54031 10.2588 5.54031C11.0229 5.54031 11.8257 6.16719 12.3882 6.68969L9.02851 9.81L7.62351 8.405C8.25726 8.1575 8.45695 7.55063 8.59664 7.11438ZM10.4491 12.7469L9.43039 11.7281L9.68476 11.4734L9.70632 11.495L9.88039 11.3075L11.2879 12.715C11.1669 12.6918 11.0441 12.6797 10.921 12.6787C10.7613 12.6787 10.6023 12.7016 10.4491 12.7469ZM6.25914 14.2062L8.7607 11.7044L8.99132 11.935L6.48976 14.4366L6.25914 14.2062ZM7.75664 10.8494C7.76914 10.8134 7.77758 10.7703 7.78195 10.7256L7.95039 10.8941L7.80695 11.0375C7.81319 11.0044 7.81191 10.9703 7.8032 10.9377C7.79449 10.9051 7.77858 10.875 7.75664 10.8494ZM8.06695 11.0106L8.29695 11.2406L5.7957 13.7425L5.5657 13.5125L8.06695 11.0106ZM8.87445 10.6634L8.62007 10.9178L8.39007 10.6878L8.64445 10.4331L8.87445 10.6634ZM9.56882 11.3575L9.31414 11.6119L9.08383 11.3816L9.3382 11.1269L9.56882 11.3575ZM8.96726 11.2653L8.73632 11.0344L8.9907 10.7797L9.22164 11.0106L8.96726 11.2653ZM8.41351 11.3572L8.64445 11.5881L6.14289 14.0897L5.91226 13.8594L8.41351 11.3572ZM9.10757 12.0509L9.27632 12.2197C9.23402 12.2234 9.19229 12.232 9.15195 12.2453C9.12633 12.2233 9.09609 12.2074 9.06347 12.1987C9.03085 12.19 8.99668 12.1887 8.96351 12.195L9.10757 12.0509ZM8.50664 10.295L8.52789 10.3166L8.27351 10.5709L7.27164 9.56906C7.34675 9.29852 7.36031 9.01459 7.31132 8.73812L8.69414 10.1209L8.50664 10.295ZM2.77132 4.19875L6.44445 7.87188L6.27882 7.86031L6.54195 8.35156C6.55382 8.37344 6.70664 8.66844 6.72414 9.02219L2.33601 4.63375L2.77132 4.19875ZM1.36976 12.7684C1.58882 12.1847 2.06507 11.8388 2.71039 11.7959C3.92007 11.7144 4.12164 10.9725 4.15445 10.7463C4.17757 10.5841 4.20445 10.4694 4.22882 10.3897C4.53007 10.8941 4.94851 11.0053 5.25757 11.0053C5.88195 11.005 6.48726 10.5519 6.69195 10.3984C6.8507 10.2797 6.96976 10.1472 7.06476 10.0087L7.39101 10.335C6.57476 10.2791 5.47664 12.3478 4.99851 11.87C4.87914 11.7497 4.90976 11.6447 4.94257 11.5872C4.97661 11.5924 5.01139 11.5897 5.04419 11.5792C5.07699 11.5688 5.10693 11.5509 5.13164 11.5269C5.15265 11.5059 5.16932 11.481 5.18071 11.4536C5.1921 11.4262 5.19797 11.3968 5.198 11.3671C5.19803 11.3374 5.19221 11.308 5.18088 11.2806C5.16955 11.2531 5.15292 11.2282 5.13195 11.2072C5.11098 11.1862 5.08608 11.1695 5.05866 11.1581C5.03125 11.1467 5.00186 11.1409 4.97217 11.1408C4.94249 11.1408 4.91308 11.1466 4.88565 11.1579C4.85821 11.1693 4.83327 11.1859 4.81226 11.2069C4.7771 11.243 4.75514 11.2899 4.74992 11.34C4.7447 11.3901 4.75654 11.4406 4.78351 11.4831C4.7182 11.5787 4.59226 11.8234 4.81882 12.0497C5.59445 12.8256 7.04445 10.1616 7.5382 10.6556C7.57039 10.6875 7.5732 10.735 7.56851 10.7766C7.51589 10.7798 7.46619 10.8019 7.42851 10.8387C7.38619 10.8811 7.36241 10.9386 7.36241 10.9984C7.36241 11.0583 7.38619 11.1158 7.42851 11.1581C7.45445 11.1835 7.48622 11.2021 7.52104 11.2124C7.55585 11.2226 7.59265 11.2242 7.6282 11.2169L5.44914 13.3966L5.24601 13.1934C5.24601 13.1934 4.85945 13.8388 4.77164 14.0728C4.69226 14.2825 4.67976 14.7506 4.57164 14.9466C4.30476 15.4287 3.25539 16.3641 2.77757 16.7766C1.25539 15.1325 1.05601 13.6038 1.36976 12.7684ZM9.61351 13.34C9.43101 13.5856 8.87508 14.3328 9.04851 15.0469C9.12351 15.3566 9.31945 15.6069 9.63132 15.7928C9.51431 15.8265 9.3949 15.8513 9.27414 15.8669C9.05758 15.8984 8.34195 16.0941 8.22507 17.3031C8.13851 18.2022 7.45101 18.7603 6.43164 18.7603C5.83414 18.7603 4.6457 18.5525 3.22507 17.2266C3.63726 16.7491 4.5732 15.6978 5.05539 15.4313C5.25164 15.3225 5.72008 15.31 5.92945 15.2306C6.16383 15.1431 6.80882 14.7563 6.80882 14.7563L6.6057 14.5531L8.78507 12.3734C8.77784 12.4089 8.77942 12.4457 8.78966 12.4804C8.7999 12.5152 8.8185 12.5469 8.84382 12.5728C8.86479 12.5939 8.88972 12.6106 8.91718 12.6221C8.94464 12.6335 8.97409 12.6394 9.00383 12.6394C9.03356 12.6394 9.06301 12.6335 9.09047 12.6221C9.11793 12.6106 9.14286 12.5939 9.16382 12.5728C9.20039 12.5354 9.22224 12.486 9.22539 12.4337C9.26632 12.4281 9.31382 12.4319 9.3457 12.4631C9.84039 12.9572 7.17664 14.4084 7.95226 15.1847C8.17882 15.4109 8.42351 15.2847 8.51882 15.2194C8.56131 15.2465 8.61175 15.2583 8.66184 15.2529C8.71194 15.2475 8.7587 15.2252 8.79445 15.1897C8.81555 15.1688 8.8323 15.144 8.84373 15.1166C8.85516 15.0892 8.86105 15.0598 8.86105 15.0302C8.86105 15.0005 8.85516 14.9711 8.84373 14.9437C8.8323 14.9163 8.81555 14.8915 8.79445 14.8706C8.77351 14.8496 8.74863 14.8329 8.72123 14.8215C8.69382 14.8101 8.66444 14.8043 8.63476 14.8043C8.60509 14.8043 8.5757 14.8101 8.5483 14.8215C8.5209 14.8329 8.49601 14.8496 8.47507 14.8706C8.4511 14.8953 8.43318 14.9252 8.42271 14.9579C8.41225 14.9907 8.40952 15.0254 8.41476 15.0594C8.35695 15.0931 8.25195 15.1244 8.13257 15.0041C7.65476 14.5259 9.72351 13.4275 9.66695 12.6106L10.0107 12.9544C9.85802 13.0602 9.72382 13.1905 9.61351 13.34ZM10.9998 13.2978C11.2322 13.3153 11.4592 13.3767 11.6688 13.4788L12.1619 13.7469L12.1498 13.5769L15.801 17.2278L15.3654 17.6631L14.6635 16.9613L10.9998 13.2978ZM14.4673 9.94375C14.3976 10.4409 14.0219 10.8816 13.3507 11.2537C13.2351 11.3181 13.0751 11.3694 12.9054 11.4237C12.4654 11.5647 11.8613 11.7634 11.6154 12.3962L10.1913 10.9722L13.3119 7.61156C13.8835 8.22313 14.5832 9.11688 14.4673 9.94375Z" fill="black"/>
</g>
<defs>
<clipPath id="clip0_121_979">
<rect width="20" height="20" fill="white"/>
</clipPath>
</defs>
</svg>
