<svg width="20" height="16" viewBox="0 0 20 16" fill="none" xmlns="http://www.w3.org/2000/svg">
<path fill-rule="evenodd" clip-rule="evenodd" d="M8.58496 2.90887C8.58494 2.90885 8.58491 2.90883 8.58489 2.9088C7.00445 1.30217 4.44206 1.30217 2.86163 2.9088C1.2812 4.51544 1.2812 7.12031 2.86163 8.72694C2.87025 8.7357 2.8789 8.74442 2.88758 8.75309L2.86182 8.7269L8.58496 2.90887Z" fill="black"/>
<path fill-rule="evenodd" clip-rule="evenodd" d="M17.1381 8.72959L11.415 2.9117L11.3772 2.95014C11.3896 2.9372 11.4021 2.92432 11.4147 2.91151C12.9952 1.30488 15.5576 1.30488 17.138 2.91151C18.7184 4.51813 18.7184 7.12295 17.1381 8.72959Z" fill="black"/>
<rect width="10.3371" height="8.16128" transform="matrix(0.70127 -0.712896 0.70127 0.712896 4.29199 10.1821)" fill="black"/>
<rect width="8.16128" height="9.64959" transform="matrix(0.70127 -0.712896 0.70127 0.712896 2.83545 8.70068)" fill="black"/>
</svg>
