<svg width="26" height="26" viewBox="0 0 26 26" fill="none" xmlns="http://www.w3.org/2000/svg">
<path d="M7 20.2V19C7 15.6863 9.6863 13 13 13C16.3137 13 19 15.6863 19 19V20.2" stroke="black" stroke-width="2" stroke-linecap="round"/>
<path d="M13 12.9998C14.9883 12.9998 16.6 11.3881 16.6 9.3998C16.6 7.41158 14.9883 5.7998 13 5.7998C11.0117 5.7998 9.40002 7.41158 9.40002 9.3998C9.40002 11.3881 11.0117 12.9998 13 12.9998Z" stroke="black" stroke-width="2" stroke-linecap="round" stroke-linejoin="round"/>
<path d="M13 25C19.6274 25 25 19.6274 25 13C25 6.37258 19.6274 1 13 1C6.37258 1 1 6.37258 1 13C1 19.6274 6.37258 25 13 25Z" stroke="black" stroke-width="2"/>
</svg>
