<svg width="55" height="55" viewBox="0 0 55 55" fill="none" xmlns="http://www.w3.org/2000/svg">
<circle cx="27.5" cy="27.5" r="27.5" fill="#FFE500" fill-opacity="0.25"/>
<path d="M21.72 35C21.6533 34.9867 21.5933 34.9667 21.54 34.94C21.4867 34.9 21.44 34.84 21.4 34.76C21.12 34.2 20.8267 33.5 20.52 32.66C20.2133 31.82 19.9133 30.9133 19.62 29.94C19.3267 28.9667 19.0533 27.9867 18.8 27C18.5467 26.0133 18.3267 25.0867 18.14 24.22C17.9533 23.3533 17.82 22.6133 17.74 22C17.7133 21.8267 17.7067 21.7067 17.72 21.64C17.7333 21.5733 17.7867 21.54 17.88 21.54H19.28C19.36 21.54 19.4133 21.56 19.44 21.6C19.48 21.64 19.5133 21.74 19.54 21.9C19.6067 22.3667 19.7 22.8933 19.82 23.48C19.94 24.0667 20.08 24.68 20.24 25.32C20.4 25.96 20.5667 26.6067 20.74 27.26C20.9133 27.9 21.0933 28.5133 21.28 29.1C21.4667 29.6867 21.6467 30.2267 21.82 30.72C21.9 30.9467 21.98 31.22 22.06 31.54C22.1533 31.86 22.2467 32.14 22.34 32.38C22.38 32.4467 22.4133 32.48 22.44 32.48C22.4667 32.48 22.5 32.4467 22.54 32.38C22.6467 32.1533 22.7467 31.88 22.84 31.56C22.9333 31.24 23.0133 30.96 23.08 30.72C23.2533 30.24 23.4267 29.7067 23.6 29.12C23.7867 28.5333 23.9667 27.9133 24.14 27.26C24.3267 26.6067 24.5 25.96 24.66 25.32C24.82 24.68 24.96 24.0667 25.08 23.48C25.2 22.88 25.2933 22.3533 25.36 21.9C25.4 21.74 25.4333 21.64 25.46 21.6C25.4867 21.56 25.54 21.54 25.62 21.54H27.04C27.1333 21.54 27.1867 21.5733 27.2 21.64C27.2133 21.7067 27.2067 21.8267 27.18 22C27.1 22.5867 26.9667 23.3133 26.78 24.18C26.5933 25.0333 26.3667 25.96 26.1 26.96C25.8467 27.9467 25.5733 28.94 25.28 29.94C24.9867 30.9267 24.6867 31.84 24.38 32.68C24.0867 33.52 23.8067 34.2067 23.54 34.74C23.4867 34.8333 23.4333 34.9 23.38 34.94C23.3267 34.9667 23.2667 34.9867 23.2 35H21.72ZM29.018 34.4V33.22C29.018 33.14 29.0446 33.1067 29.098 33.12C29.1513 33.12 29.2246 33.14 29.318 33.18C29.5846 33.26 29.878 33.34 30.198 33.42C30.5313 33.5 30.858 33.5667 31.178 33.62C31.5113 33.66 31.7913 33.68 32.018 33.68C32.8846 33.68 33.5313 33.4467 33.958 32.98C34.398 32.5 34.618 31.9 34.618 31.18C34.618 30.5133 34.4246 29.9933 34.038 29.62C33.6513 29.2467 33.058 28.9533 32.258 28.74C31.8846 28.6467 31.4913 28.5333 31.078 28.4C30.6646 28.2533 30.278 28.0533 29.918 27.8C29.558 27.5467 29.258 27.2 29.018 26.76C28.7913 26.32 28.678 25.7467 28.678 25.04C28.678 24.1867 28.8713 23.5 29.258 22.98C29.6446 22.4467 30.1513 22.06 30.778 21.82C31.418 21.58 32.1046 21.46 32.838 21.46C33.1446 21.46 33.4646 21.4867 33.798 21.54C34.1446 21.58 34.4713 21.6467 34.778 21.74C35.098 21.82 35.378 21.9133 35.618 22.02C35.7113 22.0333 35.7646 22.06 35.778 22.1C35.8046 22.14 35.818 22.1933 35.818 22.26V23.32C35.818 23.56 35.6713 23.6 35.378 23.44C35.0713 23.28 34.7113 23.1467 34.298 23.04C33.898 22.92 33.4513 22.86 32.958 22.86C32.2246 22.86 31.6313 23.0467 31.178 23.42C30.738 23.78 30.518 24.2733 30.518 24.9C30.518 25.3533 30.618 25.7267 30.818 26.02C31.018 26.3 31.278 26.52 31.598 26.68C31.918 26.84 32.258 26.9733 32.618 27.08C32.9913 27.1867 33.3513 27.2933 33.698 27.4C34.3113 27.5867 34.8246 27.82 35.238 28.1C35.6513 28.3667 35.9646 28.7333 36.178 29.2C36.4046 29.6667 36.518 30.28 36.518 31.04C36.518 31.9467 36.3313 32.7067 35.958 33.32C35.598 33.92 35.078 34.38 34.398 34.7C33.7313 35.02 32.9446 35.18 32.038 35.18C31.6513 35.18 31.2046 35.1333 30.698 35.04C30.1913 34.9467 29.7246 34.8333 29.298 34.7C29.1913 34.6733 29.118 34.64 29.078 34.6C29.038 34.5467 29.018 34.48 29.018 34.4Z" fill="black"/>
</svg>
